<svg width="17" height="15" viewBox="0 0 17 15" fill="none" xmlns="http://www.w3.org/2000/svg">
<path d="M13.3333 0C15.1742 0 16.6667 1.49238 16.6667 3.33333V11.6667C16.6667 13.5076 15.1742 15 13.3333 15H3.33333C1.49238 15 0 13.5076 0 11.6667V3.33333C0 1.49238 1.49238 0 3.33333 0H13.3333ZM3.33333 1.66667C2.41286 1.66667 1.66667 2.41286 1.66667 3.33333V11.6667C1.66667 12.5872 2.41286 13.3333 3.33333 13.3333H13.3333C14.2538 13.3333 15 12.5872 15 11.6667V3.33333C15 2.41286 14.2538 1.66667 13.3333 1.66667H3.33333ZM7.84342 3.66617C8.02725 3.22257 8.63942 3.22255 8.82325 3.66617L9.08692 4.30257C9.53683 5.38881 10.3768 6.25675 11.4323 6.72608L12.1793 7.05808C12.607 7.2485 12.6071 7.87125 12.1793 8.0615L11.3875 8.41308C10.3587 8.87067 9.53408 9.70717 9.07633 10.7577L8.82 11.3468C8.632 11.7782 8.03467 11.7782 7.84667 11.3468L7.59033 10.7577C7.13258 9.70717 6.30795 8.87067 5.27913 8.41308L4.48731 8.0615C4.05961 7.87125 4.05971 7.2485 4.48731 7.05808L5.23438 6.72608C6.28977 6.25675 7.129 5.38881 7.57892 4.30257L7.84342 3.66617Z" fill="#4B5563"/>
</svg>
