<svg width="20" height="13" viewBox="0 0 20 13" fill="none" xmlns="http://www.w3.org/2000/svg">
<path d="M14.7612 5.94008L14.5557 6.4115C14.4053 6.75658 13.928 6.75658 13.7776 6.4115L13.5722 5.94008C13.2059 5.09956 12.5463 4.43034 11.7231 4.06423L11.09 3.78268C10.7477 3.63044 10.7477 3.13234 11.09 2.9801L11.6877 2.71428C12.532 2.33876 13.2035 1.64478 13.5634 0.775692L13.7744 0.266275C13.9215 -0.0887583 14.4118 -0.0887583 14.5588 0.266275L14.7698 0.775692C15.1298 1.64478 15.8013 2.33876 16.6457 2.71428L17.2432 2.9801C17.5856 3.13234 17.5856 3.63044 17.2432 3.78268L16.6103 4.06423C15.7871 4.43034 15.1274 5.09956 14.7612 5.94008ZM2.35702 7.50008L5.89256 11.0357L4.71404 12.2142L0 7.50008L4.71404 2.78605L5.89256 3.96457L2.35702 7.50008ZM15.2857 12.2143L19.9998 7.50025L17.6428 5.14323L16.4642 6.32175L17.6428 7.50025L14.1072 11.0358L15.2857 12.2143Z" fill="#4B5563"/>
</svg>
