<svg width="19" height="17" viewBox="0 0 19 17" fill="none" xmlns="http://www.w3.org/2000/svg">
<path d="M3.61524 5.24772C3.61123 5.16563 3.6092 5.08304 3.6092 5C3.6092 2.23858 5.84777 6.20882e-07 8.60921 6.20882e-07C9.73388 6.20882e-07 10.774 0.372309 11.6097 1.00006L10.6087 2.33267C10.0517 1.91427 9.36055 1.66667 8.60921 1.66667C8.37913 1.66667 8.15438 1.68998 7.93738 1.73439C6.41848 2.04522 5.27588 3.38918 5.27588 5C5.27588 6.69423 6.53987 8.09325 8.1763 8.3055C9.02913 7.13206 10.3217 6.42403 11.6892 6.27755C12.2589 6.21653 12.8419 6.25318 13.4121 6.39373C13.8597 6.50401 14.2992 6.67837 14.7175 6.91992C17.109 8.30067 17.9284 11.3586 16.5477 13.75C15.167 16.1415 12.109 16.9609 9.71755 15.5802C9.29921 15.3387 8.92855 15.0452 8.60921 14.7128C8.28996 15.0452 7.91921 15.3387 7.5008 15.5803C5.10937 16.9609 2.05142 16.1416 0.670705 13.7501C-0.710003 11.3587 0.109372 8.30067 2.50084 6.91998C2.91916 6.67847 3.35854 6.50412 3.80607 6.39384C3.7032 6.03872 3.63864 5.66733 3.61717 5.28442L3.61524 5.24772ZM4.56737 7.944C4.14554 7.99908 3.72703 8.1365 3.33417 8.36333C1.73986 9.28383 1.19361 11.3225 2.11409 12.9168C3.03456 14.5111 5.0732 15.0573 6.6675 14.1368C7.1943 13.8328 7.60496 13.4083 7.8873 12.9187C8.39496 12.0381 8.48688 10.9493 8.07996 9.97242C7.7598 9.93867 7.44855 9.87475 7.1493 9.7835C7.11155 9.772 7.07396 9.76 7.03655 9.74767C6.0362 9.41642 5.17586 8.77792 4.56737 7.944ZM9.57113 13.2786C9.8298 13.6163 10.158 13.91 10.5509 14.1368C12.1452 15.0573 14.1838 14.511 15.1043 12.9167C15.5205 12.1958 15.6369 11.3841 15.492 10.6259C15.3165 9.70733 14.7576 8.86742 13.8842 8.36308C13.3574 8.059 12.7845 7.9155 12.2194 7.91583C11.203 7.9165 10.2141 8.38133 9.57155 9.22217C9.6643 9.43042 9.74155 9.64225 9.80388 9.85642C9.84038 9.98208 9.8718 10.1085 9.89813 10.2354C9.90938 10.2898 9.91971 10.3443 9.92913 10.3988C10.0985 11.3806 9.9673 12.3843 9.57113 13.2786ZM14.0904 5C14.3309 5.27835 14.5309 5.59476 14.6814 5.94009L14.8868 6.41149C15.0372 6.7566 15.5145 6.7566 15.6649 6.41149L15.8704 5.94009C16.2366 5.09956 16.8963 4.43034 17.7195 4.06423L18.3342 3.78268C18.6765 3.63044 18.6765 3.13234 18.3342 2.9801L17.7549 2.71428C16.9105 2.33876 16.239 1.64478 15.879 0.775692L15.668 0.266276C15.521 -0.0887586 15.0307 -0.0887586 14.8836 0.266276L14.6726 0.775692C14.6063 0.935992 14.5293 1.09033 14.4425 1.23782C14.0591 1.88994 13.4855 2.40803 12.7969 2.71428L12.1992 2.9801C11.857 3.13234 11.857 3.63044 12.1992 3.78268L12.8323 4.06423C13.3172 4.27993 13.7455 4.60083 14.0904 5Z" fill="#4B5563"/>
</svg>
